<svg xmlns="http://www.w3.org/2000/svg" width="300.882" height="44"><g data-name="グループ 1"><text data-name="Railroads Network" transform="translate(47.882 34)" fill="#8aac25" font-size="34" font-family="CrimsonText-Regular, Crimson Text"><tspan x="0" y="0">Railroads Network</tspan></text><g data-name="グループ 322"><g data-name="グループ 321" fill="none" stroke="#859e14" stroke-linecap="round" stroke-width="1.5"><path data-name="線 149" stroke-miterlimit="10" d="M23.473 33.403l3.089 5.481"/><path data-name="線 150" stroke-miterlimit="10" d="M11.745 33.403l-3.089 5.481"/><path data-name="線 151" stroke-linejoin="round" d="M9.546 37.068h16.126"/><path data-name="パス 842" d="M5.498 33.403a16.859 16.859 0 1124.222 0" stroke-miterlimit="10"/><path data-name="線 152" stroke-miterlimit="10" d="M17.609 18.01v7.33"/><path data-name="線 153" stroke-miterlimit="10" d="M19.075 33.403h-2.932"/><path data-name="線 154" stroke-miterlimit="10" d="M12.478 30.471h-2.199"/><path data-name="線 155" stroke-miterlimit="10" d="M24.939 30.471H22.74"/><path data-name="線 156" stroke-miterlimit="10" d="M8.08 25.34h19.058"/><g data-name="グループ 320" stroke-linejoin="round"><path data-name="パス 843" d="M11.007 12.146h13.2a2.932 2.932 0 012.932 2.932v16.859a1.466 1.466 0 01-1.466 1.466h-4.4l-.733-2.932h-5.864l-.733 2.932h-4.4a1.466 1.466 0 01-1.466-1.466V15.078a2.932 2.932 0 012.93-2.932z"/><path data-name="線 157" d="M13.944 15.078h7.33"/><path data-name="線 158" d="M8.08 18.01h19.058"/></g></g></g></g></svg>